<?xml version="1.0" standalone="no"?><!DOCTYPE svg PUBLIC "-//W3C//DTD SVG 1.1//EN" "http://www.w3.org/Graphics/SVG/1.1/DTD/svg11.dtd"><svg t="1723995774715" class="icon" viewBox="0 0 1024 1024" version="1.1" xmlns="http://www.w3.org/2000/svg" p-id="8995" xmlns:xlink="http://www.w3.org/1999/xlink" width="200" height="200"><path d="M815.104 50.688a130.816 130.816 0 0 1 5.888 261.5808 130.7648 130.7648 0 0 1-133.632-127.7952v-2.9696A129.1776 129.1776 0 0 1 815.0528 50.7392h0.0512zM0 464.896c59.9552-2.2528 119.9616-4.352 179.968-6.3488l26.0608 31.5392 237.7216 209.152a37.7344 37.7344 0 0 1-7.0656 37.1712l-84.1216 61.1328c-17.7664 6.7584-37.376 3.584-52.6336-8.448C203.3664 701.44 106.9056 613.7344 10.496 525.824 0 516.096 1.536 480.0512 0 464.896zM269.6704 145.408c-31.744 0.256-16.8448 30.6688-1.2288 44.7488 75.776 69.4784 151.6032 138.8544 227.4816 208.128l-118.272 94.72c-20.4288 16.2304-2.9184 62.4128 12.4416 75.9808l454.0416 404.2752H1024c-5.3248-23.8592-2.8672-55.296-20.9408-71.0656-128.512-113.152-256.9216-226.304-385.2288-339.456 42.1888-36.9664 84.3264-73.8304 126.3104-110.7456a44.032 44.032 0 0 0-4.608-55.296c-91.9552-85.0432-183.808-169.7792-275.5584-254.3104a34675.2 34675.2 0 0 0-194.304 3.0208z" fill="#409eff" p-id="8996" data-spm-anchor-id="a313x.search_index.0.i13.72a73a81u3GhG7" class="selected"></path></svg>